<svg xmlns="http://www.w3.org/2000/svg" width="20.422" height="21.315" viewBox="0 0 20.422 21.315">
  <path id="Path_38" data-name="Path 38" d="M1676.166,732.317l-.432-.249a8.154,8.154,0,0,0,.046-.861,8.33,8.33,0,0,0-.075-1.055l.369-.213a2.247,2.247,0,0,0,.822-3.068l-.978-1.693a2.245,2.245,0,0,0-3.067-.822l-.4.233a8.227,8.227,0,0,0-1.7-.987v-.356A2.245,2.245,0,0,0,1668.5,721h-1.955a2.246,2.246,0,0,0-2.246,2.246v.356a8.252,8.252,0,0,0-1.781,1.047l-.233-.135a2.245,2.245,0,0,0-3.067.822l-.978,1.694a2.245,2.245,0,0,0,.822,3.067l.262.152a8.42,8.42,0,0,0-.06.958,8.28,8.28,0,0,0,.09,1.153l-.2.116a2.246,2.246,0,0,0-.822,3.068l.978,1.693a2.246,2.246,0,0,0,3.068.822l.3-.174a8.2,8.2,0,0,0,1.8.995v.289a2.247,2.247,0,0,0,2.246,2.246h1.955a2.246,2.246,0,0,0,2.246-2.246v-.445a8.215,8.215,0,0,0,1.678-1.018l.336.194a2.246,2.246,0,0,0,3.068-.822l.978-1.693A2.246,2.246,0,0,0,1676.166,732.317Zm-12.693-1.11a4.048,4.048,0,1,1,4.049,4.049A4.049,4.049,0,0,1,1663.473,731.207Z" transform="translate(-1657.356 -720.55)" fill="none" stroke="#fff" stroke-linecap="round" stroke-linejoin="round" stroke-width="0.9"/>
</svg>
