<svg xmlns="http://www.w3.org/2000/svg" width="44.094" height="39.809" viewBox="0 0 44.094 39.809">
  <g id="Group_96" data-name="Group 96" transform="translate(-1157.55 -235.602)">
    <g id="Group_95" data-name="Group 95">
      <g id="Group_92" data-name="Group 92">
        <path id="Path_87" data-name="Path 87" d="M1195.515,275.411h-31.836a6.119,6.119,0,0,1-5.3-9.179l15.918-27.57a6.058,6.058,0,0,1,5.3-3.06h0a6.057,6.057,0,0,1,5.3,3.06l15.918,27.569a6.12,6.12,0,0,1-5.3,9.18ZM1179.6,239.6a2.08,2.08,0,0,0-1.835,1.06l-15.918,27.569a2.12,2.12,0,0,0,1.835,3.18h31.836a2.12,2.12,0,0,0,1.835-3.181l-15.918-27.568h0a2.081,2.081,0,0,0-1.834-1.059Z" fill="#B22929"/>
      </g>
      <g id="Group_93" data-name="Group 93">
        <path id="Path_88" data-name="Path 88" d="M1179.754,253.028a2,2,0,0,1-2-2v-1.1a2,2,0,0,1,4,0v1.1A2,2,0,0,1,1179.754,253.028Z" fill="#B22929"/>
      </g>
      <g id="Group_94" data-name="Group 94">
        <path id="Path_89" data-name="Path 89" d="M1179.754,268.381a2,2,0,0,1-2-2v-9.869a2,2,0,0,1,4,0v9.869A2,2,0,0,1,1179.754,268.381Z" fill="#B22929"/>
      </g>
    </g>
  </g>
</svg>
