<svg xmlns="http://www.w3.org/2000/svg" width="43.765" height="43.766" viewBox="0 0 43.765 43.766">
  <g id="Group_101" data-name="Group 101" transform="translate(-1463.568 -235)">
    <g id="Group_97" data-name="Group 97">
      <path id="Path_90" data-name="Path 90" d="M1485.45,278.766a21.883,21.883,0,1,1,21.883-21.883A21.908,21.908,0,0,1,1485.45,278.766Zm0-39.766a17.883,17.883,0,1,0,17.883,17.883A17.9,17.9,0,0,0,1485.45,239Z" fill="#55b583"/>
    </g>
    <g id="Group_98" data-name="Group 98">
      <path id="Path_91" data-name="Path 91" d="M1483.655,264.744a2,2,0,0,1-1.208-.406l-5.566-4.22a2,2,0,1,1,2.416-3.187l3.942,2.988L1491.195,249a2,2,0,0,1,3.233,2.356l-9.157,12.568a2,2,0,0,1-1.325.8A2.025,2.025,0,0,1,1483.655,264.744Z" fill="#55b583"/>
    </g>
  </g>
</svg>
