<svg xmlns="http://www.w3.org/2000/svg" width="21.6" height="17.203" viewBox="0 0 21.6 17.203">
  <g id="Group_220" data-name="Group 220" transform="translate(-24.613 -172.216)">
    <path id="Path_350" data-name="Path 350" d="M30.426,186.6H25.455a.389.389,0,0,1-.392-.384V173.049a.388.388,0,0,1,.392-.383H45.371a.388.388,0,0,1,.392.383V186.22a.389.389,0,0,1-.392.384H30.426Z" fill="none" stroke="#fff" stroke-linecap="round" stroke-linejoin="round" stroke-width="0.9"/>
    <line id="Line_39" data-name="Line 39" y1="5.945" transform="translate(28.499 177.882)" fill="none" stroke="#fff" stroke-linecap="round" stroke-linejoin="round" stroke-width="0.9"/>
    <line id="Line_40" data-name="Line 40" y1="7.731" transform="translate(31.842 176.096)" fill="none" stroke="#fff" stroke-linecap="round" stroke-linejoin="round" stroke-width="0.9"/>
    <line id="Line_41" data-name="Line 41" x2="6.586" transform="translate(36.323 183.569)" fill="none" stroke="#fff" stroke-linecap="round" stroke-linejoin="round" stroke-width="0.9"/>
    <circle id="Ellipse_80" data-name="Ellipse 80" cx="2.472" cy="2.472" r="2.472" transform="translate(37.144 175.433)" fill="none" stroke="#fff" stroke-linecap="round" stroke-linejoin="round" stroke-width="0.9"/>
    <path id="Path_351" data-name="Path 351" d="M37.577,176.6l1.733,1.23.833-2.095" fill="none" stroke="#fff" stroke-linecap="round" stroke-linejoin="round" stroke-width="0.9"/>
    <line id="Line_42" data-name="Line 42" x2="6.586" transform="translate(32.12 188.969)" fill="none" stroke="#fff" stroke-linecap="round" stroke-linejoin="round" stroke-width="0.9"/>
  </g>
</svg>
