<svg xmlns="http://www.w3.org/2000/svg" width="19.093" height="16.141" viewBox="0 0 19.093 16.141">
  <g id="Group_95" data-name="Group 95" transform="translate(-4754.387 -309.791)">
    <g id="Group_86" data-name="Group 86">
      <path id="Path_88" data-name="Path 88" d="M4767.428,325.932a2.441,2.441,0,1,1,2.441-2.442A2.445,2.445,0,0,1,4767.428,325.932Zm0-3.871a1.43,1.43,0,1,0,1.429,1.429A1.431,1.431,0,0,0,4767.428,322.061Z" fill="#4f5356"/>
    </g>
    <g id="Group_87" data-name="Group 87">
      <path id="Path_89" data-name="Path 89" d="M4772.974,318.367h-12.043a.506.506,0,1,1,0-1.012h12.043a.506.506,0,0,1,0,1.012Z" fill="#4f5356"/>
    </g>
    <g id="Group_88" data-name="Group 88">
      <path id="Path_90" data-name="Path 90" d="M4756.832,318.367h-1.939a.506.506,0,0,1,0-1.012h1.939a.506.506,0,0,1,0,1.012Z" fill="#4f5356"/>
    </g>
    <g id="Group_89" data-name="Group 89">
      <path id="Path_91" data-name="Path 91" d="M4772.974,324h-3.441a.506.506,0,1,1,0-1.012h3.441a.506.506,0,0,1,0,1.012Z" fill="#4f5356"/>
    </g>
    <g id="Group_90" data-name="Group 90">
      <path id="Path_92" data-name="Path 92" d="M4765.252,324h-10.359a.506.506,0,0,1,0-1.012h10.359a.506.506,0,0,1,0,1.012Z" fill="#4f5356"/>
    </g>
    <g id="Group_91" data-name="Group 91">
      <path id="Path_93" data-name="Path 93" d="M4772.974,312.738h-5.95a.506.506,0,0,1,0-1.012h5.95a.506.506,0,0,1,0,1.012Z" fill="#4f5356"/>
    </g>
    <g id="Group_92" data-name="Group 92">
      <path id="Path_94" data-name="Path 94" d="M4762.651,312.738h-7.758a.506.506,0,0,1,0-1.012h7.758a.506.506,0,1,1,0,1.012Z" fill="#4f5356"/>
    </g>
    <g id="Group_93" data-name="Group 93">
      <path id="Path_95" data-name="Path 95" d="M4764.848,314.673a2.441,2.441,0,1,1,2.441-2.441A2.444,2.444,0,0,1,4764.848,314.673Zm0-3.87a1.429,1.429,0,1,0,1.429,1.429A1.431,1.431,0,0,0,4764.848,310.8Z" fill="#4f5356"/>
    </g>
    <g id="Group_94" data-name="Group 94">
      <path id="Path_96" data-name="Path 96" d="M4758.848,320.3a2.441,2.441,0,1,1,2.441-2.441A2.445,2.445,0,0,1,4758.848,320.3Zm0-3.87a1.429,1.429,0,1,0,1.429,1.429A1.432,1.432,0,0,0,4758.848,316.432Z" fill="#4f5356"/>
    </g>
  </g>
</svg>
