<?xml version="1.0" encoding="utf-8"?>
<!-- Generator: Adobe Illustrator 23.0.1, SVG Export Plug-In . SVG Version: 6.00 Build 0)  -->
<svg version="1.1" id="Layer_1" xmlns="http://www.w3.org/2000/svg" xmlns:xlink="http://www.w3.org/1999/xlink" x="0px" y="0px"
	 viewBox="0 0 16 16" style="enable-background:new 0 0 16 16;" xml:space="preserve">
<style type="text/css">
	.st0{fill:#F99E22;}
	.st1{fill:#FFFFFF;}
</style>
<g>
	<circle class="st0" cx="8" cy="8" r="6.8"/>
	<g>
		<path class="st1" d="M7.2,7.2c1-0.1,1.8-0.5,1.8-1c0-0.5-0.4-0.9-1.1-0.9C7.3,5.2,6.8,5.5,6.4,6L5.7,5.2C6.2,4.5,7,4.1,8,4.1
			c1.3,0,2.2,0.8,2.2,2c0,0.9-0.8,1.7-1.9,2v0.9H7.2V7.2z M7,10.5c0-0.4,0.3-0.8,0.8-0.8c0.4,0,0.8,0.4,0.8,0.8
			c0,0.4-0.4,0.8-0.8,0.8C7.3,11.3,7,11,7,10.5z"/>
	</g>
</g>
</svg>
