<svg xmlns="http://www.w3.org/2000/svg" width="189.642" height="41.153" viewBox="0 0 189.642 41.153">
	<g id="Group_36" data-name="Group 36" transform="translate(-28.358 -25)">
		<g id="Group_32" data-name="Group 32">
			<path id="Path_32" data-name="Path 32"
				d="M47.059,28.856v3.783A13.06,13.06,0,0,0,36,43.7H32.215A16.809,16.809,0,0,1,47.059,28.856m11.007,18.6h7.589A16.8,16.8,0,0,1,50.811,62.3V58.515a13.1,13.1,0,0,0,9.926-7.309H56.363a9.425,9.425,0,0,1-.838.96,9.555,9.555,0,0,1-.961.839,9.316,9.316,0,0,1-11.258,0,9.544,9.544,0,0,1-1.8-1.8,9.314,9.314,0,0,1,0-11.258,9.422,9.422,0,0,1,1.8-1.8,9.261,9.261,0,0,1,3.753-1.7,9.316,9.316,0,0,1,7.505,1.7,9.389,9.389,0,0,1,1.8,1.8h4.374a13.06,13.06,0,0,0-9.926-7.309V28.857A16.839,16.839,0,0,1,64.794,39.948h3.937a20.555,20.555,0,0,0-17.92-14.863,20.806,20.806,0,0,0-3.752,0A20.555,20.555,0,0,0,28.443,43.7a20.805,20.805,0,0,0,0,3.752H36A13.06,13.06,0,0,0,47.059,58.515V62.3A16.847,16.847,0,0,1,33.076,51.206H29.139A20.608,20.608,0,0,0,43.306,65.373a20.668,20.668,0,0,0,11.258,0,20.555,20.555,0,0,0,14.863-17.92,20.715,20.715,0,0,0,0-3.752H58.066Z"
				fill="#ff9e19" fill-rule="evenodd" />
			<rect id="Rectangle_33" data-name="Rectangle 33" width="1.876" height="1.388"
				transform="translate(56.483 43.701)" fill="#ff9e19" />
			<rect id="Rectangle_34" data-name="Rectangle 34" width="1.842" height="1.388"
				transform="translate(54.138 43.701)" fill="#ff9e19" />
			<rect id="Rectangle_35" data-name="Rectangle 35" width="1.842" height="1.388"
				transform="translate(51.673 43.701)" fill="#ff9e19" />
			<rect id="Rectangle_36" data-name="Rectangle 36" width="0.921" height="1.388"
				transform="translate(50.021 43.701)" fill="#ff9e19" />
			<rect id="Rectangle_37" data-name="Rectangle 37" width="2.37" height="0.94"
				transform="translate(56.83 46.513)" fill="#ff9e19" />
			<rect id="Rectangle_38" data-name="Rectangle 38" width="1.751" height="0.94"
				transform="translate(54.647 46.513)" fill="#ff9e19" />
			<rect id="Rectangle_39" data-name="Rectangle 39" width="1.525" height="0.94"
				transform="translate(52.593 46.513)" fill="#ff9e19" />
			<rect id="Rectangle_40" data-name="Rectangle 40" width="1.016" height="0.94"
				transform="translate(50.942 46.513)" fill="#ff9e19" />
			<rect id="Rectangle_41" data-name="Rectangle 41" width="0.726" height="0.94"
				transform="translate(49.372 46.513)" fill="#ff9e19" />
			<rect id="Rectangle_42" data-name="Rectangle 42" width="1.291" height="0.973"
				transform="translate(55.628 45.314)" fill="#ff9e19" />
			<rect id="Rectangle_43" data-name="Rectangle 43" width="1.291" height="0.973"
				transform="translate(57.211 45.314)" fill="#ff9e19" />
			<rect id="Rectangle_44" data-name="Rectangle 44" width="1.291" height="0.973"
				transform="translate(53.739 45.314)" fill="#ff9e19" />
			<rect id="Rectangle_45" data-name="Rectangle 45" width="1.016" height="0.973"
				transform="translate(52.056 45.314)" fill="#ff9e19" />
			<rect id="Rectangle_46" data-name="Rectangle 46" width="0.724" height="0.973"
				transform="translate(50.565 45.314)" fill="#ff9e19" />
			<rect id="Rectangle_47" data-name="Rectangle 47" width="0.482" height="0.973"
				transform="translate(49.131 45.314)" fill="#ff9e19" />
		</g>
		<g id="Group_35" data-name="Group 35">
			<g id="Group_33" data-name="Group 33">
				<path id="Path_33" data-name="Path 33"
					d="M81.218,48.3a7.124,7.124,0,0,1-2.791-2.646,7.722,7.722,0,0,1,0-7.654,7.126,7.126,0,0,1,2.791-2.647,8.9,8.9,0,0,1,7.366-.3,6.781,6.781,0,0,1,2.534,1.887l-2.134,1.97a4.589,4.589,0,0,0-3.611-1.682,4.789,4.789,0,0,0-2.38.585,4.149,4.149,0,0,0-1.632,1.631,5.134,5.134,0,0,0,0,4.76,4.162,4.162,0,0,0,1.632,1.631,4.789,4.789,0,0,0,2.38.585,4.567,4.567,0,0,0,3.611-1.7l2.134,1.97A6.667,6.667,0,0,1,88.574,48.6a8.464,8.464,0,0,1-3.386.656A8.248,8.248,0,0,1,81.218,48.3Z"
					fill="#fff" />
				<path id="Path_34" data-name="Path 34"
					d="M94.862,48.444A5.42,5.42,0,0,1,92.7,46.423a5.915,5.915,0,0,1,0-5.868,5.413,5.413,0,0,1,2.165-2.021,7.058,7.058,0,0,1,6.248,0,5.429,5.429,0,0,1,2.154,2.021,5.908,5.908,0,0,1,0,5.868,5.436,5.436,0,0,1-2.154,2.021,7.067,7.067,0,0,1-6.248,0Zm5.15-2.729a3.531,3.531,0,0,0,0-4.452,2.666,2.666,0,0,0-2.021-.831,2.7,2.7,0,0,0-2.031.831,3.5,3.5,0,0,0,0,4.452,2.7,2.7,0,0,0,2.031.831A2.666,2.666,0,0,0,100.012,45.715Z"
					fill="#fff" />
				<path id="Path_35" data-name="Path 35"
					d="M110.784,38.216a5.741,5.741,0,0,1,2.247-.411V40.76q-.534-.04-.718-.041a2.931,2.931,0,0,0-2.154.769,3.111,3.111,0,0,0-.781,2.309v5.211h-3.2V37.97h3.057v1.456A3.556,3.556,0,0,1,110.784,38.216Z"
					fill="#fff" />
				<path id="Path_36" data-name="Path 36"
					d="M125.588,44.392h-8.351a2.6,2.6,0,0,0,1.067,1.621,3.538,3.538,0,0,0,2.093.6,4.23,4.23,0,0,0,1.528-.257,3.7,3.7,0,0,0,1.242-.81l1.7,1.846a5.724,5.724,0,0,1-4.555,1.785,7.2,7.2,0,0,1-3.3-.728,5.342,5.342,0,0,1-2.217-2.021,5.567,5.567,0,0,1-.779-2.934,5.641,5.641,0,0,1,.769-2.924,5.384,5.384,0,0,1,2.114-2.031,6.539,6.539,0,0,1,5.94-.031,5.1,5.1,0,0,1,2.062,2,5.971,5.971,0,0,1,.748,3.027Q125.649,43.591,125.588,44.392Zm-7.489-3.55a2.624,2.624,0,0,0-.9,1.682h5.437a2.649,2.649,0,0,0-.9-1.672,2.7,2.7,0,0,0-1.806-.625A2.757,2.757,0,0,0,118.1,40.842Z"
					fill="#fff" />
				<path id="Path_37" data-name="Path 37"
					d="M129.435,48.793a7.706,7.706,0,0,1-2.554-1.2l1.128-2.5a7.658,7.658,0,0,0,2.195,1.088,8.268,8.268,0,0,0,2.545.41,4.053,4.053,0,0,0,2.092-.421,1.269,1.269,0,0,0,.677-1.118,1.068,1.068,0,0,0-.4-.851,3.033,3.033,0,0,0-1.027-.544q-.625-.206-1.692-.451a23.316,23.316,0,0,1-2.688-.78,4.359,4.359,0,0,1-1.8-1.252,3.375,3.375,0,0,1-.749-2.3,4,4,0,0,1,.677-2.267,4.555,4.555,0,0,1,2.042-1.611,8.34,8.34,0,0,1,3.334-.6,11.027,11.027,0,0,1,2.687.329,7.958,7.958,0,0,1,2.3.943l-1.026,2.524a8.016,8.016,0,0,0-3.981-1.128,3.731,3.731,0,0,0-2.062.451,1.378,1.378,0,0,0-.667,1.19,1.164,1.164,0,0,0,.77,1.1,12.119,12.119,0,0,0,2.349.708,23.665,23.665,0,0,1,2.688.779,4.468,4.468,0,0,1,1.795,1.231,3.306,3.306,0,0,1,.749,2.278,3.917,3.917,0,0,1-.688,2.247,4.609,4.609,0,0,1-2.062,1.61,8.4,8.4,0,0,1-3.344.6A11.779,11.779,0,0,1,129.435,48.793Z"
					fill="#fff" />
				<path id="Path_38" data-name="Path 38"
					d="M147.993,48.475a3.29,3.29,0,0,1-1.159.523,5.877,5.877,0,0,1-1.447.174,4.3,4.3,0,0,1-3.046-1.005,3.844,3.844,0,0,1-1.078-2.955V40.678h-1.7V38.216h1.7V35.528h3.2v2.688h2.749v2.462h-2.749v4.493a1.5,1.5,0,0,0,.359,1.077,1.329,1.329,0,0,0,1.016.38,2.059,2.059,0,0,0,1.292-.41Z"
					fill="#fff" />
				<path id="Path_39" data-name="Path 39"
					d="M154.4,38.216a5.741,5.741,0,0,1,2.247-.411V40.76q-.534-.04-.718-.041a2.931,2.931,0,0,0-2.154.769A3.111,3.111,0,0,0,153,43.8v5.211h-3.2V37.97h3.057v1.456A3.556,3.556,0,0,1,154.4,38.216Z"
					fill="#fff" />
				<path id="Path_40" data-name="Path 40"
					d="M166.89,39.026a4.671,4.671,0,0,1,1.375,3.683v6.3H165.27V47.633a3.567,3.567,0,0,1-3.365,1.539,5.208,5.208,0,0,1-2.206-.431,3.276,3.276,0,0,1-1.426-1.19,3.09,3.09,0,0,1-.493-1.723,2.876,2.876,0,0,1,1.16-2.421,5.906,5.906,0,0,1,3.58-.883h2.545a2.042,2.042,0,0,0-.636-1.61,2.807,2.807,0,0,0-1.909-.564,5.566,5.566,0,0,0-1.734.277,4.582,4.582,0,0,0-1.446.748l-1.149-2.236a6.945,6.945,0,0,1,2.164-.985,9.727,9.727,0,0,1,2.6-.349A5.747,5.747,0,0,1,166.89,39.026Zm-2.728,7.612a2.076,2.076,0,0,0,.9-1.118V44.392h-2.2q-1.97,0-1.97,1.292a1.152,1.152,0,0,0,.482.975,2.177,2.177,0,0,0,1.324.359A2.783,2.783,0,0,0,164.162,46.638Z"
					fill="#fff" />
				<path id="Path_41" data-name="Path 41"
					d="M178.277,48.475a3.282,3.282,0,0,1-1.159.523,5.869,5.869,0,0,1-1.446.174,4.3,4.3,0,0,1-3.047-1.005,3.847,3.847,0,0,1-1.077-2.955V40.678h-1.7V38.216h1.7V35.528h3.2v2.688H177.5v2.462h-2.749v4.493a1.5,1.5,0,0,0,.358,1.077,1.329,1.329,0,0,0,1.016.38,2.062,2.062,0,0,0,1.293-.41Z"
					fill="#fff" />
				<path id="Path_42" data-name="Path 42"
					d="M190.486,44.392h-8.351a2.6,2.6,0,0,0,1.067,1.621,3.538,3.538,0,0,0,2.093.6,4.23,4.23,0,0,0,1.528-.257,3.7,3.7,0,0,0,1.242-.81l1.7,1.846a5.724,5.724,0,0,1-4.555,1.785,7.2,7.2,0,0,1-3.3-.728,5.342,5.342,0,0,1-2.217-2.021,5.567,5.567,0,0,1-.779-2.934,5.641,5.641,0,0,1,.769-2.924,5.385,5.385,0,0,1,2.114-2.031,6.539,6.539,0,0,1,5.94-.031,5.1,5.1,0,0,1,2.062,2,5.971,5.971,0,0,1,.748,3.027Q190.547,43.591,190.486,44.392ZM183,40.842a2.624,2.624,0,0,0-.9,1.682h5.437a2.649,2.649,0,0,0-.9-1.672,2.7,2.7,0,0,0-1.806-.625A2.757,2.757,0,0,0,183,40.842Z"
					fill="#fff" />
				<path id="Path_43" data-name="Path 43"
					d="M204.069,37.97v9.191a5.9,5.9,0,0,1-1.58,4.514,6.526,6.526,0,0,1-4.617,1.478,11.581,11.581,0,0,1-3.036-.39,6.626,6.626,0,0,1-2.38-1.129l1.272-2.3a5.222,5.222,0,0,0,1.764.913,7.013,7.013,0,0,0,2.134.339,3.463,3.463,0,0,0,2.452-.749,2.983,2.983,0,0,0,.79-2.267V47.1a4.481,4.481,0,0,1-3.488,1.375,5.849,5.849,0,0,1-2.78-.667,5.08,5.08,0,0,1-2-1.878,5.643,5.643,0,0,1,0-5.58,5.087,5.087,0,0,1,2-1.878,5.86,5.86,0,0,1,2.78-.667,4.383,4.383,0,0,1,3.652,1.58V37.97ZM200.1,45.1a2.774,2.774,0,0,0,0-3.918,2.947,2.947,0,0,0-2.083-.749,2.982,2.982,0,0,0-2.093.749,2.748,2.748,0,0,0,0,3.918,2.982,2.982,0,0,0,2.093.749A2.947,2.947,0,0,0,200.1,45.1Z"
					fill="#fff" />
				<path id="Path_44" data-name="Path 44"
					d="M218,37.97l-4.985,11.715a5.778,5.778,0,0,1-1.878,2.688,4.6,4.6,0,0,1-2.7.78,5.633,5.633,0,0,1-1.7-.267,3.76,3.76,0,0,1-1.375-.739l1.17-2.277a2.763,2.763,0,0,0,.851.513,2.655,2.655,0,0,0,.954.184,1.693,1.693,0,0,0,1.067-.318,2.7,2.7,0,0,0,.739-1.056l.041-.1L205.4,37.97h3.3l3.1,7.489,3.119-7.489Z"
					fill="#fff" />
			</g>
			<g id="Group_34" data-name="Group 34">
				<path id="Path_45" data-name="Path 45"
					d="M144.6,58.68h-.017V59.3H143.9V52.943h.687v2.818h.017a1.626,1.626,0,0,1,1.485-.855,1.572,1.572,0,0,1,1.293.576,2.382,2.382,0,0,1,.468,1.546,2.666,2.666,0,0,1-.524,1.726,1.748,1.748,0,0,1-1.434.647A1.413,1.413,0,0,1,144.6,58.68Zm-.017-1.732v.6a1.281,1.281,0,0,0,.346.9,1.235,1.235,0,0,0,1.858-.107,2.2,2.2,0,0,0,.355-1.33,1.731,1.731,0,0,0-.332-1.124,1.1,1.1,0,0,0-.9-.407,1.22,1.22,0,0,0-.965.418A1.533,1.533,0,0,0,144.585,56.948Z"
					fill="#fff" />
				<path id="Path_46" data-name="Path 46"
					d="M152.365,55.006l-1.975,4.983q-.529,1.333-1.485,1.333a1.589,1.589,0,0,1-.449-.054v-.617a1.259,1.259,0,0,0,.407.076.842.842,0,0,0,.78-.621l.344-.814-1.678-4.286h.764l1.161,3.305c.014.042.044.151.088.327h.026c.014-.067.042-.173.084-.319l1.22-3.313Z"
					fill="#fff" />
				<path id="Path_47" data-name="Path 47"
					d="M159.641,59.049a3.524,3.524,0,0,1-1.661.352,2.679,2.679,0,0,1-2.055-.826,3.048,3.048,0,0,1-.771-2.168,3.2,3.2,0,0,1,.868-2.332,2.949,2.949,0,0,1,2.2-.889,3.529,3.529,0,0,1,1.417.248v.75a2.878,2.878,0,0,0-1.426-.36,2.185,2.185,0,0,0-1.679.692,2.6,2.6,0,0,0-.644,1.849,2.477,2.477,0,0,0,.6,1.751,2.046,2.046,0,0,0,1.579.652,2.967,2.967,0,0,0,1.568-.4Z"
					fill="#fff" />
				<path id="Path_48" data-name="Path 48"
					d="M162.568,59.4a1.993,1.993,0,0,1-1.52-.6,2.23,2.23,0,0,1-.568-1.6,2.323,2.323,0,0,1,.591-1.69,2.124,2.124,0,0,1,1.6-.608,1.93,1.93,0,0,1,1.5.591,2.35,2.35,0,0,1,.538,1.64,2.311,2.311,0,0,1-.58,1.646A2.039,2.039,0,0,1,162.568,59.4Zm.051-3.917a1.31,1.31,0,0,0-1.049.451,1.854,1.854,0,0,0-.386,1.244,1.748,1.748,0,0,0,.39,1.2,1.326,1.326,0,0,0,1.045.441,1.257,1.257,0,0,0,1.025-.432A1.876,1.876,0,0,0,164,57.162a1.9,1.9,0,0,0-.359-1.241A1.252,1.252,0,0,0,162.619,55.484Z"
					fill="#fff" />
				<path id="Path_49" data-name="Path 49"
					d="M168.045,55.7a.835.835,0,0,0-.52-.139.881.881,0,0,0-.736.415,1.931,1.931,0,0,0-.295,1.133V59.3h-.688V55.006h.688v.885h.017a1.491,1.491,0,0,1,.448-.706,1.022,1.022,0,0,1,.675-.254,1.1,1.1,0,0,1,.411.059Z"
					fill="#fff" />
				<path id="Path_50" data-name="Path 50"
					d="M172.243,57.326h-3.032a1.605,1.605,0,0,0,.386,1.107,1.33,1.33,0,0,0,1.015.39,2.116,2.116,0,0,0,1.334-.478v.645a2.5,2.5,0,0,1-1.5.411,1.816,1.816,0,0,1-1.43-.585,2.4,2.4,0,0,1-.52-1.646,2.347,2.347,0,0,1,.569-1.633,1.819,1.819,0,0,1,1.411-.631,1.611,1.611,0,0,1,1.3.545,2.27,2.27,0,0,1,.461,1.514Zm-.7-.583a1.4,1.4,0,0,0-.288-.927.977.977,0,0,0-.786-.332,1.113,1.113,0,0,0-.826.349,1.58,1.58,0,0,0-.419.91Z"
					fill="#fff" />
				<path id="Path_51" data-name="Path 51" d="M175.481,57.179h-2.29v-.541h2.29Z" fill="#fff" />
				<path id="Path_52" data-name="Path 52"
					d="M180.9,59.049a3.53,3.53,0,0,1-1.661.352,2.676,2.676,0,0,1-2.055-.826,3.044,3.044,0,0,1-.772-2.168,3.2,3.2,0,0,1,.868-2.332,2.95,2.95,0,0,1,2.2-.889,3.534,3.534,0,0,1,1.418.248v.75a2.881,2.881,0,0,0-1.426-.36,2.186,2.186,0,0,0-1.68.692,2.607,2.607,0,0,0-.644,1.849,2.481,2.481,0,0,0,.6,1.751,2.047,2.047,0,0,0,1.579.652,2.968,2.968,0,0,0,1.569-.4Z"
					fill="#fff" />
				<path id="Path_53" data-name="Path 53"
					d="M181.847,59.058v-.831a1.6,1.6,0,0,0,.342.227,2.915,2.915,0,0,0,.419.17,3.352,3.352,0,0,0,.443.106,2.38,2.38,0,0,0,.411.038,1.61,1.61,0,0,0,.971-.241.906.906,0,0,0,.213-1.118,1.193,1.193,0,0,0-.295-.329,2.975,2.975,0,0,0-.447-.285q-.258-.136-.555-.287-.315-.159-.588-.323a2.529,2.529,0,0,1-.473-.361,1.49,1.49,0,0,1-.317-.446,1.528,1.528,0,0,1,.065-1.3,1.554,1.554,0,0,1,.474-.5,2.15,2.15,0,0,1,.668-.293,3.041,3.041,0,0,1,.766-.1,2.94,2.94,0,0,1,1.3.214v.793a2.349,2.349,0,0,0-1.367-.369,2.265,2.265,0,0,0-.462.048,1.331,1.331,0,0,0-.411.157.916.916,0,0,0-.293.281.744.744,0,0,0-.113.42.856.856,0,0,0,.086.4.976.976,0,0,0,.253.306,2.532,2.532,0,0,0,.41.269q.24.129.555.285t.612.335a2.876,2.876,0,0,1,.508.39,1.769,1.769,0,0,1,.346.474,1.336,1.336,0,0,1,.128.6,1.507,1.507,0,0,1-.175.752,1.429,1.429,0,0,1-.469.5,2.074,2.074,0,0,1-.682.279,3.747,3.747,0,0,1-.813.085,3.17,3.17,0,0,1-.353-.023c-.139-.015-.282-.037-.427-.067a3.23,3.23,0,0,1-.413-.109A1.261,1.261,0,0,1,181.847,59.058Z"
					fill="#fff" />
				<path id="Path_54" data-name="Path 54" d="M187.4,59.3h-.705V53.287h.705Z" fill="#fff" />
			</g>
		</g>
	</g>
</svg>