<svg xmlns="http://www.w3.org/2000/svg" width="20.028" height="21.694" viewBox="0 0 20.028 21.694">
  <g id="Group_145" data-name="Group 145" transform="translate(-1372.478 -1897.719)">
    <path id="Path_166" data-name="Path 166" d="M1383.916,1912.494a8.422,8.422,0,0,0-1.606.378,7.776,7.776,0,0,0-1.524.635l.4,1.247a1.408,1.408,0,0,0,1.812.8l.318-.1a1.41,1.41,0,0,0,1-1.709Z" fill="none" stroke="#222" stroke-linecap="round" stroke-linejoin="round" stroke-width="1"/>
    <path id="Path_167" data-name="Path 167" d="M1391.948,1911.807a1.3,1.3,0,0,0-.568-.671c-.317-.482-2.48-1.113-2.932-2.508l-2.517-6.113a3.567,3.567,0,0,0-1.3-1.787,7.206,7.206,0,0,0-5.935-1.377l-.049-.151a1.35,1.35,0,0,0-1.7-.866h0a1.35,1.35,0,0,0-.866,1.7l.067.209c-2.166,1.187-3.46,3.244-3.087,5.3.018.1.048.2.074.3a3.523,3.523,0,0,0,.156.773l1.542,6.429c.4,1.229-.567,2.733-.759,3.46a1.468,1.468,0,0,0-.2,1.163c.534,1.65,5.013,1.679,10,.063S1392.482,1913.458,1391.948,1911.807Zm-15.89,5.143c-.4-1.246,2.325-3.245,6.093-4.464s7.15-1.2,7.553.048" fill="none" stroke="#222" stroke-linecap="round" stroke-linejoin="round" stroke-width="1"/>
  </g>
</svg>
