<?xml version="1.0" encoding="utf-8"?>
<!-- Generator: Adobe Illustrator 23.0.1, SVG Export Plug-In . SVG Version: 6.00 Build 0)  -->
<svg version="1.1" id="Layer_1" xmlns="http://www.w3.org/2000/svg" xmlns:xlink="http://www.w3.org/1999/xlink" x="0px" y="0px"
	 viewBox="0 0 38 38" style="enable-background:new 0 0 38 38;" xml:space="preserve">
<style type="text/css">
	.st0{fill:#303030;}
</style>
<g>
	<g>
		<g id="XMLID_16_">
			<path class="st0" d="M19,37.3C8.8,37.3,0.6,29,0.6,18.8c0-6.2,3.1-11.9,8.2-15.4C9.7,2.9,11,3.1,11.6,4c0.6,0.9,0.4,2.2-0.6,2.8
				c-4,2.7-6.5,7.2-6.5,12c0,8,6.5,14.4,14.4,14.4c8,0,14.4-6.5,14.4-14.4c0-4.9-2.4-9.4-6.5-12c-0.9-0.6-1.2-1.9-0.6-2.8
				c0.6-0.9,1.8-1.2,2.8-0.6c5.2,3.4,8.3,9.2,8.3,15.4C37.4,29,29.2,37.3,19,37.3z"/>
		</g>
		<g id="XMLID_15_">
			<path class="st0" d="M19,21.2c-1.1,0-2-0.9-2-2V2.7c0-1.1,0.9-2,2-2s2,0.9,2,2v16.5C21,20.3,20.1,21.2,19,21.2z"/>
		</g>
	</g>
</g>
</svg>
